<?xml version="1.0" standalone="no"?>
<!DOCTYPE svg PUBLIC "-//W3C//DTD SVG 20010904//EN"
 "http://www.w3.org/TR/2001/REC-SVG-20010904/DTD/svg10.dtd">
<svg version="1.0" xmlns="http://www.w3.org/2000/svg"
 width="500.000000pt" height="500.000000pt" viewBox="0 0 500.000000 500.000000"
 preserveAspectRatio="xMidYMid meet">
  <circle cx="250" cy="250" r="250" fill="#f9dc5e" />
<g transform="translate(0.000000,500.000000) scale(0.100000,-0.100000)"
fill="#000000" stroke="#f9dc5e">
<path d="M2 3818 c0 -651 3 -1167 5 -1148 21 225 47 369 99 545 117 396 328
748 629 1050 412 414 952 668 1539 724 44 5 -449 9 -1096 10 l-1178 1 2 -1182z"/>
<path d="M2690 4993 c101 -8 332 -46 437 -74 133 -34 319 -103 458 -170 628
-301 1113 -870 1309 -1534 52 -176 78 -320 99 -545 2 -19 5 497 5 1148 l2
1182 -1177 -2 c-648 -1 -1158 -3 -1133 -5z"/>
<path d="M2223 4945 c-300 -35 -568 -116 -841 -255 -244 -123 -429 -260 -629
-462 -205 -208 -326 -377 -453 -633 -94 -190 -140 -313 -185 -490 -56 -224
-70 -341 -69 -605 0 -264 14 -384 69 -605 88 -348 277 -717 503 -980 76 -88
252 -261 337 -330 246 -200 556 -361 865 -450 438 -126 922 -126 1360 0 664
191 1222 660 1526 1280 89 182 135 307 179 480 56 222 69 341 69 605 0 264
-13 383 -69 605 -82 326 -251 666 -462 930 -86 107 -267 290 -378 380 -299
244 -679 421 -1068 500 -217 43 -528 56 -754 30z m1945 -922 c-2 -14 -18 -20
-68 -26 -35 -4 -78 -17 -96 -27 -42 -26 -81 -85 -93 -140 -7 -29 -11 -436 -11
-1167 0 -1232 1 -1199 -60 -1332 -38 -80 -106 -176 -160 -225 -95 -86 -193
-130 -335 -152 -172 -26 -200 -12 -90 45 123 63 240 220 303 406 l27 80 3
1155 c2 857 0 1165 -9 1195 -26 91 -109 154 -201 155 -36 0 -48 4 -48 15 0 11
11 15 39 15 22 0 43 5 46 10 4 6 142 10 381 10 352 0 375 -1 372 -17z m-1839
-1173 c468 -1028 522 -1140 566 -1188 57 -63 128 -102 201 -109 36 -4 54 -10
54 -19 0 -10 -14 -14 -45 -14 -25 0 -45 -4 -45 -10 0 -7 -188 -10 -545 -10
-526 0 -545 1 -545 19 0 15 10 19 50 23 89 9 143 86 121 171 -6 23 -48 137
-94 252 l-84 210 -360 3 -360 2 -81 -192 c-105 -249 -116 -280 -108 -323 11
-55 65 -103 126 -111 66 -9 70 -34 5 -34 -25 0 -45 -4 -45 -10 0 -6 -128 -10
-365 -10 -349 0 -365 1 -365 19 0 15 10 19 56 24 111 11 213 86 263 192 12 25
189 426 395 893 206 466 405 917 444 1002 38 85 83 197 98 247 16 51 35 93 41
93 7 0 21 -17 32 -37 l19 -38 12 48 c9 33 17 47 27 45 9 -2 226 -467 532
-1138z"/>
<path d="M1457 2694 c-82 -196 -147 -358 -144 -360 2 -2 135 -3 295 -2 l290 3
-140 358 c-78 196 -144 357 -147 357 -3 0 -73 -161 -154 -356z"/>
<path d="M2 1183 l-2 -1183 1178 2 c647 1 1157 3 1132 5 -25 2 -108 13 -185
24 -522 77 -1015 326 -1390 703 -302 304 -512 655 -629 1051 -52 176 -78 320
-99 545 -2 19 -5 -497 -5 -1147z"/>
<path d="M4990 2315 c0 -24 -7 -95 -16 -157 -75 -547 -317 -1031 -709 -1423
-414 -415 -952 -667 -1539 -724 -44 -5 449 -9 1097 -10 l1177 -1 0 1180 c0
649 -2 1180 -5 1180 -3 0 -5 -20 -5 -45z"/>
</g>
</svg>
