<?xml version="1.0" standalone="no"?>
<!DOCTYPE svg PUBLIC "-//W3C//DTD SVG 20010904//EN"
 "http://www.w3.org/TR/2001/REC-SVG-20010904/DTD/svg10.dtd">
<svg version="1.0" xmlns="http://www.w3.org/2000/svg"
 width="1280.000000pt" height="500.000000pt" viewBox="0 0 1280.000000 500.000000"
 preserveAspectRatio="xMidYMid meet">

<g transform="translate(0.000000,500.000000) scale(0.100000,-0.100000)"
fill="#000000" stroke="none">
<path d="M0 2500 l0 -2500 6400 0 6400 0 0 2500 0 2500 -6400 0 -6400 0 0
-2500z m12700 -35 l0 -2055 -6300 0 -6300 0 0 2055 0 2055 6300 0 6300 0 0
-2055z"/>
<path d="M140 2460 l0 -2020 6260 0 6260 0 0 2020 0 2020 -6260 0 -6260 0 0
-2020z m1755 1548 c7 -18 252 -556 544 -1196 317 -695 544 -1183 566 -1213 61
-82 163 -139 250 -139 37 0 45 -3 45 -19 0 -28 -68 -31 -692 -31 -451 0 -558
2 -558 13 0 8 23 18 58 25 65 13 92 36 117 95 21 51 10 92 -99 362 l-84 210
-384 2 -383 3 -97 -234 c-106 -254 -115 -293 -78 -353 26 -43 59 -63 117 -71
33 -5 48 -12 48 -22 0 -24 -75 -28 -492 -29 -322 -1 -383 1 -383 13 0 9 15 16
43 19 113 13 190 55 253 137 31 41 119 231 339 730 164 371 378 857 478 1080
170 384 247 573 247 613 0 32 35 19 55 -20 l18 -38 10 35 c5 19 11 41 13 48 7
23 35 12 49 -20z m5915 13 c0 -15 -11 -19 -65 -24 -95 -9 -147 -43 -191 -127
-18 -33 -19 -90 -24 -1275 -5 -1170 -7 -1244 -24 -1305 -68 -238 -241 -428
-446 -491 -67 -20 -269 -50 -282 -42 -18 10 -4 24 62 59 106 56 197 157 265
298 96 197 89 76 92 1455 4 1378 10 1276 -77 1354 -50 45 -106 67 -169 67 -21
0 -31 5 -31 15 0 11 12 15 45 15 25 0 45 5 45 10 0 7 140 10 400 10 383 0 400
-1 400 -19z m3845 -1431 c82 -170 156 -317 166 -325 9 -9 30 -20 45 -25 19 -5
-28 -9 -136 -9 -139 -1 -161 1 -140 12 34 17 36 38 6 102 l-25 55 -111 0 -111
0 -25 -55 c-30 -64 -28 -85 6 -102 22 -11 10 -13 -85 -12 -102 0 -108 1 -78
14 17 7 38 24 47 37 23 36 255 534 269 579 6 21 15 39 18 39 3 0 73 -139 154
-310z m-5489 -25 c20 -148 43 -280 50 -292 8 -12 29 -27 47 -32 23 -7 -10 -9
-123 -9 -115 0 -148 2 -127 10 20 7 27 16 27 36 0 42 -32 275 -40 290 -8 15
-172 -243 -199 -313 l-17 -46 -124 186 c-68 102 -124 184 -126 183 -7 -8 -36
-299 -31 -312 4 -9 17 -21 29 -26 16 -6 -9 -9 -82 -8 -82 0 -98 2 -73 9 18 5
37 18 42 27 5 10 29 152 52 315 23 163 45 297 49 297 4 0 73 -99 154 -221 121
-180 151 -219 161 -208 6 8 72 110 146 228 124 199 134 212 140 185 4 -16 24
-150 45 -299z m2285 315 c88 -13 148 -40 205 -92 56 -52 80 -97 93 -177 28
-176 -61 -321 -230 -372 -101 -31 -238 -24 -327 16 -131 59 -199 173 -190 319
11 165 109 271 278 302 83 15 91 16 171 4z m1548 -77 c-1 -67 -3 -80 -9 -54
-15 63 -38 76 -150 79 l-100 4 0 -131 0 -131 74 0 c83 0 122 20 129 68 2 15 4
-25 4 -88 0 -63 -2 -103 -4 -88 -7 48 -46 68 -129 68 l-74 0 0 -130 0 -130 68
0 c37 0 84 5 105 11 49 13 102 60 123 109 22 49 29 45 15 -6 -5 -22 -15 -65
-21 -96 l-11 -58 -257 1 c-141 1 -247 4 -235 6 13 2 32 16 43 30 19 24 20 40
20 282 0 307 0 306 -82 306 -34 0 -62 -6 -74 -15 -9 -8 -64 -85 -121 -172
l-103 -156 0 -110 c0 -95 3 -113 20 -135 11 -14 30 -28 43 -30 12 -2 -48 -5
-133 -5 -138 -1 -152 0 -124 12 17 8 34 21 38 31 3 9 6 68 6 130 l0 114 -103
158 c-98 149 -122 175 -172 186 -11 3 54 5 145 5 91 0 154 -3 140 -7 -14 -4
-26 -15 -28 -26 -2 -21 127 -256 143 -259 13 -2 144 226 145 252 0 14 -8 26
-22 32 -15 5 93 9 292 10 258 1 370 6 398 19 1 0 2 -38 1 -86z m-6574 60 c-41
-10 -45 -28 -45 -227 1 -210 8 -264 47 -314 73 -96 234 -77 289 35 15 32 19
70 22 246 5 225 0 250 -50 260 -13 2 24 4 82 4 58 0 95 -2 83 -4 -12 -2 -26
-10 -31 -16 -6 -7 -12 -109 -14 -227 -3 -190 -6 -220 -24 -260 -48 -105 -132
-145 -288 -138 -107 5 -172 31 -213 84 -47 62 -52 94 -53 315 0 215 -3 232
-45 242 -11 3 43 5 120 5 77 0 131 -2 120 -5z m948 -4 c21 -5 53 -24 72 -40
86 -76 64 -222 -42 -275 l-43 -22 34 -25 c18 -14 48 -50 67 -79 67 -108 119
-167 152 -177 28 -8 23 -9 -35 -10 -165 -2 -219 33 -298 194 -28 57 -58 108
-67 114 -15 8 -13 10 12 16 65 14 87 39 110 122 10 36 -13 99 -46 127 -24 20
-41 26 -80 26 l-49 0 0 -278 c0 -253 2 -280 18 -294 9 -9 26 -18 37 -21 11 -2
-50 -5 -135 -5 -85 0 -146 3 -135 5 11 3 28 12 38 21 15 14 17 41 17 299 l0
284 -32 14 c-30 13 -14 14 167 15 110 0 217 -5 238 -11z m512 4 c-41 -10 -45
-28 -45 -227 1 -210 8 -264 47 -314 73 -96 234 -77 289 35 15 32 19 70 22 246
5 225 0 250 -50 260 -13 2 24 4 82 4 58 0 95 -2 83 -4 -12 -2 -26 -10 -31 -16
-6 -7 -12 -109 -14 -227 -3 -190 -6 -220 -24 -260 -48 -105 -132 -145 -288
-138 -107 5 -172 31 -213 84 -47 62 -52 94 -53 315 0 215 -3 232 -45 242 -11
3 43 5 120 5 77 0 131 -2 120 -5z m5678 -4 c21 -5 53 -24 72 -40 86 -76 64
-222 -43 -276 l-43 -21 31 -22 c17 -12 57 -61 87 -107 80 -122 112 -153 156
-153 26 0 41 7 56 26 20 25 21 39 21 288 0 284 -1 289 -55 305 -21 6 19 9 125
9 85 0 146 -3 135 -5 -11 -3 -28 -12 -37 -21 -16 -14 -18 -41 -18 -287 0 -294
1 -298 55 -314 45 -14 -393 -13 -456 0 -76 16 -118 60 -179 184 -28 57 -58
108 -67 114 -15 8 -13 10 12 16 65 14 87 39 110 122 10 36 -13 99 -46 127 -24
20 -41 26 -80 26 l-49 0 0 -278 c0 -253 2 -280 18 -294 9 -9 26 -18 37 -21 11
-2 -50 -5 -135 -5 -85 0 -146 3 -135 5 11 3 28 12 38 21 15 14 17 41 17 299
l0 284 -32 14 c-30 13 -14 14 167 15 110 0 217 -5 238 -11z"/>
<path d="M1513 2687 c-84 -199 -155 -370 -158 -379 -7 -17 12 -18 305 -18 246
0 311 3 307 13 -3 6 -69 174 -147 372 -78 198 -145 363 -149 367 -3 4 -75
-156 -158 -355z"/>
<path d="M11457 2653 c-11 -18 -87 -197 -87 -205 0 -4 41 -8 90 -8 50 0 90 3
90 8 0 18 -88 213 -93 205z"/>
<path d="M8355 2843 c-54 -9 -68 -16 -104 -48 -134 -121 -113 -429 34 -512 46
-26 118 -30 168 -9 18 7 47 30 65 50 55 63 66 98 66 226 1 107 -1 119 -27 173
-16 31 -43 68 -61 82 -33 25 -103 44 -141 38z"/>
</g>
</svg>
